<svg width="181" height="107" viewBox="0 0 181 107" fill="none" xmlns="http://www.w3.org/2000/svg">
<path d="M10.5647 105.957H0.83667V105.486C1.6753 105.314 2.22347 105.069 2.47711 104.75C2.73074 104.431 2.85755 103.919 2.85755 103.22V92.4815C2.85755 91.7451 2.71439 91.2215 2.43621 90.9106C2.15803 90.5997 1.62211 90.3869 0.83667 90.2724V89.7979H9.34976C11.0925 89.7979 12.4547 90.1251 13.4324 90.7878C14.4101 91.4465 14.901 92.3833 14.901 93.586C14.901 95.4555 13.7065 96.7237 11.3134 97.3864V97.4437C14.3692 98 15.8992 99.4236 15.8992 101.706C15.8992 102.974 15.4124 103.997 14.4429 104.779C13.4774 105.568 12.1847 105.957 10.5647 105.957ZM6.4207 90.7142V97.2023H7.72977C8.76476 97.2023 9.57475 96.9159 10.1597 96.3391C10.7447 95.7664 11.0352 94.9646 11.0352 93.9378C11.0352 91.786 9.84884 90.7142 7.47205 90.7142H6.4207ZM8.33931 98.1064H6.42479V103.056C6.42479 103.772 6.60479 104.284 6.96479 104.586C7.32478 104.889 7.92613 105.036 8.77294 105.036C9.78747 105.036 10.5893 104.734 11.1661 104.128C11.747 103.523 12.0374 102.684 12.0374 101.612C12.0374 100.553 11.7102 99.7018 11.0597 99.0636C10.4011 98.4255 9.49702 98.1064 8.33931 98.1064Z" fill="#231F20"/>
<path d="M10.5647 105.957H0.83667V105.486C1.6753 105.314 2.22347 105.069 2.47711 104.75C2.73074 104.431 2.85755 103.919 2.85755 103.22V92.4815C2.85755 91.7451 2.71439 91.2215 2.43621 90.9106C2.15803 90.5997 1.62211 90.3869 0.83667 90.2724V89.7979H9.34976C11.0925 89.7979 12.4547 90.1251 13.4324 90.7878C14.4101 91.4465 14.901 92.3833 14.901 93.586C14.901 95.4555 13.7065 96.7237 11.3134 97.3864V97.4437C14.3692 98 15.8992 99.4236 15.8992 101.706C15.8992 102.974 15.4124 103.997 14.4429 104.779C13.4774 105.568 12.1847 105.957 10.5647 105.957ZM6.4207 90.7142V97.2023H7.72977C8.76476 97.2023 9.57475 96.9159 10.1597 96.3391C10.7447 95.7664 11.0352 94.9646 11.0352 93.9378C11.0352 91.786 9.84884 90.7142 7.47205 90.7142H6.4207ZM8.33931 98.1064H6.42479V103.056C6.42479 103.772 6.60479 104.284 6.96479 104.586C7.32478 104.889 7.92613 105.036 8.77294 105.036C9.78747 105.036 10.5893 104.734 11.1661 104.128C11.747 103.523 12.0374 102.684 12.0374 101.612C12.0374 100.553 11.7102 99.7018 11.0597 99.0636C10.4011 98.4255 9.49702 98.1064 8.33931 98.1064Z" stroke="#231F20" stroke-width="0.231951" stroke-miterlimit="10"/>
<path d="M22.4324 95.1282V98.4459H22.4856C23.4756 96.2368 24.6251 95.1282 25.9383 95.1282C26.6583 95.1282 27.276 95.4227 27.7873 96.0118L27.1 99.1618C26.1551 98.2618 25.3737 97.8118 24.7519 97.8118C24.2937 97.8118 23.8928 97.9181 23.5533 98.1349C23.2137 98.3518 22.8415 98.7363 22.4365 99.2927V103.555C22.4365 104.218 22.5551 104.672 22.7883 104.918C23.0215 105.159 23.496 105.347 24.2037 105.482V105.957H17.5684V105.482C18.2515 105.323 18.7138 105.11 18.9511 104.848C19.1883 104.586 19.3111 104.157 19.3111 103.555V98.0531C19.3111 97.3986 19.1597 96.9077 18.8611 96.5845C18.5584 96.2613 18.0756 96.0691 17.4088 96.0159V95.5454L21.9701 95.1282H22.4324Z" fill="#231F20"/>
<path d="M22.4324 95.1282V98.4459H22.4856C23.4756 96.2368 24.6251 95.1282 25.9383 95.1282C26.6583 95.1282 27.276 95.4227 27.7873 96.0118L27.1 99.1618C26.1551 98.2618 25.3737 97.8118 24.7519 97.8118C24.2937 97.8118 23.8928 97.9181 23.5533 98.1349C23.2137 98.3518 22.8415 98.7363 22.4365 99.2927V103.555C22.4365 104.218 22.5551 104.672 22.7883 104.918C23.0215 105.159 23.496 105.347 24.2037 105.482V105.957H17.5684V105.482C18.2515 105.323 18.7138 105.11 18.9511 104.848C19.1883 104.586 19.3111 104.157 19.3111 103.555V98.0531C19.3111 97.3986 19.1597 96.9077 18.8611 96.5845C18.5584 96.2613 18.0756 96.0691 17.4088 96.0159V95.5454L21.9701 95.1282H22.4324Z" stroke="#231F20" stroke-width="0.231951" stroke-miterlimit="10"/>
<path d="M31.7226 106.374C30.8594 106.374 30.1231 106.108 29.5176 105.572C28.9081 105.04 28.6053 104.394 28.6053 103.637C28.6053 102.88 28.9081 102.254 29.5094 101.755C30.1108 101.256 31.3708 100.757 33.2853 100.25C34.2098 100.004 34.8766 99.8081 35.2816 99.6526C35.2816 98.6913 35.073 97.9958 34.6639 97.5663C34.2507 97.1326 33.5921 96.9199 32.6921 96.9199C31.2808 96.9199 30.2376 97.4967 29.5626 98.6585H29.1576C29.4358 97.5376 29.984 96.6663 30.7981 96.0486C31.6121 95.4349 32.6226 95.124 33.8253 95.124C35.2162 95.124 36.333 95.4677 37.1634 96.1508C37.9939 96.834 38.4111 97.7912 38.4111 99.0226V103.936C38.4111 104.86 38.6198 105.323 39.0452 105.323C39.487 105.323 39.7611 104.999 39.8675 104.349H40.3134C40.2602 104.995 40.0106 105.494 39.5729 105.846C39.1311 106.198 38.5339 106.37 37.7812 106.37C37.143 106.37 36.6275 106.255 36.2348 106.026C35.8421 105.797 35.5189 105.421 35.2571 104.901L35.0157 105.13C34.083 105.965 32.9826 106.374 31.7226 106.374ZM35.2571 104.165V100.213C33.8826 100.798 32.9703 101.301 32.5244 101.723C32.0826 102.148 31.8576 102.692 31.8576 103.355C31.8576 103.919 31.9926 104.378 32.2585 104.725C32.5244 105.073 32.8721 105.245 33.3017 105.245C33.8907 105.245 34.5412 104.885 35.2571 104.165Z" fill="#231F20"/>
<path d="M31.7226 106.374C30.8594 106.374 30.1231 106.108 29.5176 105.572C28.9081 105.04 28.6053 104.394 28.6053 103.637C28.6053 102.88 28.9081 102.254 29.5094 101.755C30.1108 101.256 31.3708 100.757 33.2853 100.25C34.2098 100.004 34.8766 99.8081 35.2816 99.6526C35.2816 98.6913 35.073 97.9958 34.6639 97.5663C34.2507 97.1326 33.5921 96.9199 32.6921 96.9199C31.2808 96.9199 30.2376 97.4967 29.5626 98.6585H29.1576C29.4358 97.5376 29.984 96.6663 30.7981 96.0486C31.6121 95.4349 32.6226 95.124 33.8253 95.124C35.2162 95.124 36.333 95.4677 37.1634 96.1508C37.9939 96.834 38.4111 97.7912 38.4111 99.0226V103.936C38.4111 104.86 38.6198 105.323 39.0452 105.323C39.487 105.323 39.7611 104.999 39.8675 104.349H40.3134C40.2602 104.995 40.0106 105.494 39.5729 105.846C39.1311 106.198 38.5339 106.37 37.7812 106.37C37.143 106.37 36.6275 106.255 36.2348 106.026C35.8421 105.797 35.5189 105.421 35.2571 104.901L35.0157 105.13C34.083 105.965 32.9826 106.374 31.7226 106.374ZM35.2571 104.165V100.213C33.8826 100.798 32.9703 101.301 32.5244 101.723C32.0826 102.148 31.8576 102.692 31.8576 103.355C31.8576 103.919 31.9926 104.378 32.2585 104.725C32.5244 105.073 32.8721 105.245 33.3017 105.245C33.8907 105.245 34.5412 104.885 35.2571 104.165Z" stroke="#231F20" stroke-width="0.231951" stroke-miterlimit="10"/>
<path d="M46.3189 95.1281V97.6767H46.3721C47.3702 95.979 48.6875 95.1281 50.3238 95.1281C51.3506 95.1281 52.2097 95.4717 52.9133 96.159C53.6129 96.8463 53.9647 97.7667 53.9647 98.9162V103.473C53.9647 104.132 54.0792 104.59 54.3165 104.856C54.5497 105.122 54.9751 105.331 55.5969 105.482V105.957H49.1906V105.482C49.8002 105.347 50.2297 105.147 50.4711 104.868C50.7124 104.594 50.8352 104.173 50.8352 103.608V99.2926C50.8352 98.5113 50.6674 97.9017 50.332 97.4681C49.9965 97.0304 49.522 96.8135 48.9084 96.8135C47.8366 96.8135 46.9734 97.419 46.3189 98.634V103.502C46.3189 104.12 46.4252 104.562 46.642 104.823C46.8589 105.085 47.2638 105.306 47.857 105.482V105.957H41.5571V105.482C42.1666 105.331 42.5921 105.122 42.8294 104.86C43.0666 104.598 43.1894 104.21 43.1894 103.686V97.8608C43.1894 97.2676 43.0503 96.834 42.7762 96.564C42.5021 96.294 42.0153 96.1099 41.3116 96.0117V95.5413L45.8443 95.124H46.3189V95.1281Z" fill="#231F20"/>
<path d="M46.3189 95.1281V97.6767H46.3721C47.3702 95.979 48.6875 95.1281 50.3238 95.1281C51.3506 95.1281 52.2097 95.4717 52.9133 96.159C53.6129 96.8463 53.9647 97.7667 53.9647 98.9162V103.473C53.9647 104.132 54.0792 104.59 54.3165 104.856C54.5497 105.122 54.9751 105.331 55.5969 105.482V105.957H49.1906V105.482C49.8002 105.347 50.2297 105.147 50.4711 104.868C50.7124 104.594 50.8352 104.173 50.8352 103.608V99.2926C50.8352 98.5113 50.6674 97.9017 50.332 97.4681C49.9965 97.0304 49.522 96.8135 48.9084 96.8135C47.8366 96.8135 46.9734 97.419 46.3189 98.634V103.502C46.3189 104.12 46.4252 104.562 46.642 104.823C46.8589 105.085 47.2638 105.306 47.857 105.482V105.957H41.5571V105.482C42.1666 105.331 42.5921 105.122 42.8294 104.86C43.0666 104.598 43.1894 104.21 43.1894 103.686V97.8608C43.1894 97.2676 43.0503 96.834 42.7762 96.564C42.5021 96.294 42.0153 96.1099 41.3116 96.0117V95.5413L45.8443 95.124H46.3189V95.1281Z" stroke="#231F20" stroke-width="0.231951" stroke-miterlimit="10"/>
<path d="M69.1826 88.6646H69.653V103.109C69.653 103.973 69.7798 104.545 70.0253 104.832C70.2748 105.114 70.8435 105.335 71.7312 105.486V105.957H63.9381C61.8027 105.957 60.1663 105.482 59.0127 104.529C57.8632 103.576 57.2864 102.267 57.2864 100.606C57.2864 98.9858 57.7936 97.6726 58.8164 96.654C59.835 95.6395 61.1645 95.1322 62.8008 95.1322C64.2326 95.1322 65.4763 95.484 66.5358 96.1835V91.4095C66.5358 90.7018 66.3476 90.2027 65.9631 89.9123C65.5826 89.6218 64.9117 89.4664 63.9586 89.4377V88.9673L69.1826 88.6646ZM66.5399 102.95V97.554C65.7504 96.429 64.7726 95.8686 63.6149 95.8686C62.7354 95.8686 62.0358 96.2736 61.5163 97.0876C61.0009 97.9017 60.7431 99.0062 60.7431 100.401C60.7431 101.939 61.1113 103.146 61.8477 104.018C62.584 104.889 63.5208 105.327 64.654 105.327C65.3535 105.327 65.8444 105.151 66.1226 104.799C66.4008 104.447 66.5399 103.833 66.5399 102.95Z" fill="#231F20"/>
<path d="M69.1826 88.6646H69.653V103.109C69.653 103.973 69.7798 104.545 70.0253 104.832C70.2748 105.114 70.8435 105.335 71.7312 105.486V105.957H63.9381C61.8027 105.957 60.1663 105.482 59.0127 104.529C57.8632 103.576 57.2864 102.267 57.2864 100.606C57.2864 98.9858 57.7936 97.6726 58.8164 96.654C59.835 95.6395 61.1645 95.1322 62.8008 95.1322C64.2326 95.1322 65.4763 95.484 66.5358 96.1835V91.4095C66.5358 90.7018 66.3476 90.2027 65.9631 89.9123C65.5826 89.6218 64.9117 89.4664 63.9586 89.4377V88.9673L69.1826 88.6646ZM66.5399 102.95V97.554C65.7504 96.429 64.7726 95.8686 63.6149 95.8686C62.7354 95.8686 62.0358 96.2736 61.5163 97.0876C61.0009 97.9017 60.7431 99.0062 60.7431 100.401C60.7431 101.939 61.1113 103.146 61.8477 104.018C62.584 104.889 63.5208 105.327 64.654 105.327C65.3535 105.327 65.8444 105.151 66.1226 104.799C66.4008 104.447 66.5399 103.833 66.5399 102.95Z" stroke="#231F20" stroke-width="0.231951" stroke-miterlimit="10"/>
<path d="M73.2448 106.374V102.357H73.7153C74.7543 104.541 76.0143 105.633 77.4911 105.633C77.9943 105.633 78.4279 105.486 78.7961 105.188C79.1602 104.889 79.3443 104.533 79.3443 104.12C79.3443 103.67 79.1766 103.281 78.8452 102.95C78.5138 102.623 77.7939 102.242 76.6893 101.809C75.278 101.26 74.3453 100.724 73.8994 100.209C73.4494 99.6936 73.2244 99.0595 73.2244 98.3108C73.2244 97.4109 73.5639 96.6541 74.243 96.0445C74.9221 95.4309 75.7975 95.1282 76.8652 95.1282C77.262 95.1282 77.9493 95.2059 78.927 95.3573C79.3156 95.4104 79.5488 95.4391 79.6266 95.4391C79.7902 95.4391 79.9988 95.3368 80.2606 95.1282H80.7311V98.3927H80.2606C79.9456 97.599 79.5038 96.9813 78.9393 96.5395C78.3707 96.0936 77.7448 95.8727 77.0493 95.8727C76.5543 95.8727 76.1411 95.9832 75.8098 96.2041C75.4784 96.425 75.3107 96.7031 75.3107 97.0345C75.3107 97.3659 75.4498 97.6604 75.728 97.9059C76.0061 98.1513 76.6321 98.4622 77.6016 98.8304C79.1029 99.4031 80.1052 99.9881 80.6124 100.585C81.1115 101.179 81.3652 101.911 81.3652 102.782C81.3652 103.788 80.9806 104.643 80.2116 105.335C79.4425 106.03 78.5711 106.378 77.6016 106.378C77.0248 106.378 76.4561 106.321 75.8916 106.202C75.3148 106.075 74.9098 106.014 74.6766 106.014C74.2634 106.014 73.9444 106.137 73.7194 106.378H73.2448V106.374Z" fill="#231F20"/>
<path d="M73.2448 106.374V102.357H73.7153C74.7543 104.541 76.0143 105.633 77.4911 105.633C77.9943 105.633 78.4279 105.486 78.7961 105.188C79.1602 104.889 79.3443 104.533 79.3443 104.12C79.3443 103.67 79.1766 103.281 78.8452 102.95C78.5138 102.623 77.7939 102.242 76.6893 101.809C75.278 101.26 74.3453 100.724 73.8994 100.209C73.4494 99.6936 73.2244 99.0595 73.2244 98.3108C73.2244 97.4109 73.5639 96.6541 74.243 96.0445C74.9221 95.4309 75.7975 95.1282 76.8652 95.1282C77.262 95.1282 77.9493 95.2059 78.927 95.3573C79.3156 95.4104 79.5488 95.4391 79.6266 95.4391C79.7902 95.4391 79.9988 95.3368 80.2606 95.1282H80.7311V98.3927H80.2606C79.9456 97.599 79.5038 96.9813 78.9393 96.5395C78.3707 96.0936 77.7448 95.8727 77.0493 95.8727C76.5543 95.8727 76.1411 95.9832 75.8098 96.2041C75.4784 96.425 75.3107 96.7031 75.3107 97.0345C75.3107 97.3659 75.4498 97.6604 75.728 97.9059C76.0061 98.1513 76.6321 98.4622 77.6016 98.8304C79.1029 99.4031 80.1052 99.9881 80.6124 100.585C81.1115 101.179 81.3652 101.911 81.3652 102.782C81.3652 103.788 80.9806 104.643 80.2116 105.335C79.4425 106.03 78.5711 106.378 77.6016 106.378C77.0248 106.378 76.4561 106.321 75.8916 106.202C75.3148 106.075 74.9098 106.014 74.6766 106.014C74.2634 106.014 73.9444 106.137 73.7194 106.378H73.2448V106.374Z" stroke="#231F20" stroke-width="0.231951" stroke-miterlimit="10"/>
<path d="M100.208 95.2632H100.678V100.279H100.208C100.081 99.5545 99.8231 99.035 99.4386 98.7241C99.05 98.4091 98.4732 98.2577 97.7 98.2577H95.1923V103.249C95.1923 103.964 95.3355 104.488 95.6218 104.811C95.9082 105.134 96.4277 105.359 97.1723 105.486V105.961H89.5919V105.486C90.3855 105.359 90.9255 105.126 91.1996 104.779C91.4778 104.431 91.6169 103.797 91.6169 102.868V92.4569C91.6169 91.7983 91.486 91.3278 91.2201 91.0415C90.9583 90.7551 90.4142 90.4974 89.5919 90.2724V89.7979H101.042L101.365 92.8333H100.895C100.609 92.0765 100.236 91.5365 99.7904 91.2051C99.3404 90.8778 98.735 90.7142 97.9741 90.7142H95.1882V97.3373H97.6959C98.4241 97.3373 98.9722 97.19 99.3322 96.8955C99.7004 96.5968 99.9909 96.0528 100.208 95.2632Z" fill="#231F20"/>
<path d="M100.208 95.2632H100.678V100.279H100.208C100.081 99.5545 99.8231 99.035 99.4386 98.7241C99.05 98.4091 98.4732 98.2577 97.7 98.2577H95.1923V103.249C95.1923 103.964 95.3355 104.488 95.6218 104.811C95.9082 105.134 96.4277 105.359 97.1723 105.486V105.961H89.5919V105.486C90.3855 105.359 90.9255 105.126 91.1996 104.779C91.4778 104.431 91.6169 103.797 91.6169 102.868V92.4569C91.6169 91.7983 91.486 91.3278 91.2201 91.0415C90.9583 90.7551 90.4142 90.4974 89.5919 90.2724V89.7979H101.042L101.365 92.8333H100.895C100.609 92.0765 100.236 91.5365 99.7904 91.2051C99.3404 90.8778 98.735 90.7142 97.9741 90.7142H95.1882V97.3373H97.6959C98.4241 97.3373 98.9722 97.19 99.3322 96.8955C99.7004 96.5968 99.9909 96.0528 100.208 95.2632Z" stroke="#231F20" stroke-width="0.231951" stroke-miterlimit="10"/>
<path d="M115.679 100.737C115.679 102.336 115.082 103.678 113.892 104.758C112.701 105.838 111.13 106.378 109.191 106.378C107.252 106.378 105.677 105.842 104.479 104.766C103.28 103.695 102.679 102.349 102.679 100.741C102.679 99.7427 102.953 98.7977 103.509 97.8977C104.061 96.9937 104.822 96.3105 105.788 95.8401C106.753 95.3696 107.89 95.1323 109.191 95.1323C111.143 95.1323 112.713 95.6723 113.9 96.7523C115.082 97.8241 115.679 99.1577 115.679 100.737ZM112.227 100.745C112.227 99.1946 111.961 97.9959 111.433 97.145C110.909 96.2941 110.161 95.8687 109.187 95.8687C108.189 95.8687 107.432 96.3064 106.909 97.1778C106.385 98.0532 106.127 99.3009 106.127 100.933C106.127 102.365 106.401 103.506 106.958 104.357C107.51 105.208 108.254 105.634 109.187 105.634C110.14 105.634 110.885 105.204 111.421 104.345C111.957 103.486 112.227 102.283 112.227 100.745Z" fill="#231F20"/>
<path d="M115.679 100.737C115.679 102.336 115.082 103.678 113.892 104.758C112.701 105.838 111.13 106.378 109.191 106.378C107.252 106.378 105.677 105.842 104.479 104.766C103.28 103.695 102.679 102.349 102.679 100.741C102.679 99.7427 102.953 98.7977 103.509 97.8977C104.061 96.9937 104.822 96.3105 105.788 95.8401C106.753 95.3696 107.89 95.1323 109.191 95.1323C111.143 95.1323 112.713 95.6723 113.9 96.7523C115.082 97.8241 115.679 99.1577 115.679 100.737ZM112.227 100.745C112.227 99.1946 111.961 97.9959 111.433 97.145C110.909 96.2941 110.161 95.8687 109.187 95.8687C108.189 95.8687 107.432 96.3064 106.909 97.1778C106.385 98.0532 106.127 99.3009 106.127 100.933C106.127 102.365 106.401 103.506 106.958 104.357C107.51 105.208 108.254 105.634 109.187 105.634C110.14 105.634 110.885 105.204 111.421 104.345C111.957 103.486 112.227 102.283 112.227 100.745Z" stroke="#231F20" stroke-width="0.231951" stroke-miterlimit="10"/>
<path d="M122.18 95.1282V98.4459H122.233C123.223 96.2368 124.372 95.1282 125.681 95.1282C126.401 95.1282 127.019 95.4227 127.53 96.0118L126.843 99.1618C125.898 98.2618 125.117 97.8118 124.499 97.8118C124.041 97.8118 123.64 97.9181 123.296 98.1349C122.957 98.3518 122.58 98.7363 122.18 99.2927V103.555C122.18 104.218 122.294 104.672 122.527 104.918C122.76 105.159 123.231 105.347 123.943 105.482V105.957H117.311V105.482C117.995 105.323 118.453 105.11 118.694 104.848C118.931 104.586 119.054 104.157 119.054 103.555V98.0531C119.054 97.3986 118.903 96.9077 118.604 96.5845C118.301 96.2613 117.819 96.0691 117.156 96.0159V95.5454L121.713 95.1282H122.18Z" fill="#231F20"/>
<path d="M122.18 95.1282V98.4459H122.233C123.223 96.2368 124.372 95.1282 125.681 95.1282C126.401 95.1282 127.019 95.4227 127.53 96.0118L126.843 99.1618C125.898 98.2618 125.117 97.8118 124.499 97.8118C124.041 97.8118 123.64 97.9181 123.296 98.1349C122.957 98.3518 122.58 98.7363 122.18 99.2927V103.555C122.18 104.218 122.294 104.672 122.527 104.918C122.76 105.159 123.231 105.347 123.943 105.482V105.957H117.311V105.482C117.995 105.323 118.453 105.11 118.694 104.848C118.931 104.586 119.054 104.157 119.054 103.555V98.0531C119.054 97.3986 118.903 96.9077 118.604 96.5845C118.301 96.2613 117.819 96.0691 117.156 96.0159V95.5454L121.713 95.1282H122.18Z" stroke="#231F20" stroke-width="0.231951" stroke-miterlimit="10"/>
<path d="M142.695 89.7979V90.2724C141.832 90.4851 141.276 90.7347 141.022 91.0128C140.768 91.291 140.642 91.7615 140.642 92.416V103.302C140.642 103.977 140.822 104.435 141.178 104.676C141.533 104.918 142.204 105.04 143.194 105.04C144.229 105.04 145.031 104.815 145.6 104.361C146.172 103.907 146.766 103.04 147.387 101.764H147.862L147.387 105.957H135.058V105.486C135.917 105.269 136.469 105.016 136.71 104.717C136.956 104.423 137.079 103.805 137.079 102.868V92.5346C137.079 91.8065 136.948 91.2951 136.682 91.0047C136.42 90.7142 135.876 90.4688 135.054 90.2724V89.7979H142.695Z" fill="#231F20"/>
<path d="M142.695 89.7979V90.2724C141.832 90.4851 141.276 90.7347 141.022 91.0128C140.768 91.291 140.642 91.7615 140.642 92.416V103.302C140.642 103.977 140.822 104.435 141.178 104.676C141.533 104.918 142.204 105.04 143.194 105.04C144.229 105.04 145.031 104.815 145.6 104.361C146.172 103.907 146.766 103.04 147.387 101.764H147.862L147.387 105.957H135.058V105.486C135.917 105.269 136.469 105.016 136.71 104.717C136.956 104.423 137.079 103.805 137.079 102.868V92.5346C137.079 91.8065 136.948 91.2951 136.682 91.0047C136.42 90.7142 135.876 90.4688 135.054 90.2724V89.7979H142.695Z" stroke="#231F20" stroke-width="0.231951" stroke-miterlimit="10"/>
<path d="M160 102.749H160.47C160.004 103.874 159.271 104.758 158.273 105.404C157.275 106.051 156.15 106.374 154.902 106.374C153.274 106.374 151.916 105.846 150.832 104.791C149.748 103.735 149.208 102.41 149.208 100.818C149.208 99.1985 149.76 97.8485 150.873 96.7563C151.982 95.6681 153.36 95.124 155.009 95.124C156.49 95.124 157.725 95.5495 158.711 96.3963C159.697 97.2472 160.282 98.3885 160.47 99.8162H152.579C152.571 99.9635 152.567 100.107 152.567 100.25C152.567 101.665 152.918 102.811 153.63 103.69C154.338 104.57 155.217 105.012 156.269 105.012C157.77 105.016 159.014 104.259 160 102.749ZM152.567 99.1862H157.112C157.046 98.2044 156.801 97.4067 156.367 96.7931C155.933 96.1794 155.402 95.8686 154.772 95.8686C154.137 95.8686 153.626 96.1672 153.225 96.7726C152.832 97.374 152.616 98.1799 152.567 99.1862Z" fill="#231F20"/>
<path d="M160 102.749H160.47C160.004 103.874 159.271 104.758 158.273 105.404C157.275 106.051 156.15 106.374 154.902 106.374C153.274 106.374 151.916 105.846 150.832 104.791C149.748 103.735 149.208 102.41 149.208 100.818C149.208 99.1985 149.76 97.8485 150.873 96.7563C151.982 95.6681 153.36 95.124 155.009 95.124C156.49 95.124 157.725 95.5495 158.711 96.3963C159.697 97.2472 160.282 98.3885 160.47 99.8162H152.579C152.571 99.9635 152.567 100.107 152.567 100.25C152.567 101.665 152.918 102.811 153.63 103.69C154.338 104.57 155.217 105.012 156.269 105.012C157.77 105.016 159.014 104.259 160 102.749ZM152.567 99.1862H157.112C157.046 98.2044 156.801 97.4067 156.367 96.7931C155.933 96.1794 155.402 95.8686 154.772 95.8686C154.137 95.8686 153.626 96.1672 153.225 96.7726C152.832 97.374 152.616 98.1799 152.567 99.1862Z" stroke="#231F20" stroke-width="0.231951" stroke-miterlimit="10"/>
<path d="M162.225 106.374V102.357H162.695C163.735 104.541 164.99 105.633 166.471 105.633C166.975 105.633 167.408 105.486 167.776 105.188C168.14 104.889 168.32 104.533 168.32 104.12C168.32 103.67 168.153 103.281 167.821 102.95C167.49 102.623 166.77 102.242 165.661 101.809C164.25 101.26 163.321 100.724 162.871 100.209C162.421 99.6936 162.196 99.0595 162.196 98.3108C162.196 97.4109 162.536 96.6541 163.215 96.0445C163.894 95.4309 164.77 95.1282 165.837 95.1282C166.234 95.1282 166.921 95.2059 167.903 95.3573C168.288 95.4104 168.525 95.4391 168.603 95.4391C168.766 95.4391 168.975 95.3368 169.237 95.1282H169.711V98.3927H169.237C168.922 97.599 168.484 96.9813 167.915 96.5395C167.347 96.0936 166.721 95.8727 166.03 95.8727C165.535 95.8727 165.121 95.9832 164.79 96.2041C164.455 96.425 164.291 96.7031 164.291 97.0345C164.291 97.3659 164.43 97.6604 164.708 97.9059C164.986 98.1513 165.612 98.4622 166.586 98.8304C168.087 99.4031 169.089 99.9881 169.597 100.585C170.096 101.179 170.349 101.911 170.349 102.782C170.349 103.788 169.965 104.643 169.196 105.335C168.427 106.03 167.555 106.378 166.586 106.378C166.009 106.378 165.436 106.321 164.872 106.202C164.295 106.075 163.89 106.014 163.657 106.014C163.24 106.014 162.925 106.137 162.7 106.378H162.225V106.374Z" fill="#231F20"/>
<path d="M162.225 106.374V102.357H162.695C163.735 104.541 164.99 105.633 166.471 105.633C166.975 105.633 167.408 105.486 167.776 105.188C168.14 104.889 168.32 104.533 168.32 104.12C168.32 103.67 168.153 103.281 167.821 102.95C167.49 102.623 166.77 102.242 165.661 101.809C164.25 101.26 163.321 100.724 162.871 100.209C162.421 99.6936 162.196 99.0595 162.196 98.3108C162.196 97.4109 162.536 96.6541 163.215 96.0445C163.894 95.4309 164.77 95.1282 165.837 95.1282C166.234 95.1282 166.921 95.2059 167.903 95.3573C168.288 95.4104 168.525 95.4391 168.603 95.4391C168.766 95.4391 168.975 95.3368 169.237 95.1282H169.711V98.3927H169.237C168.922 97.599 168.484 96.9813 167.915 96.5395C167.347 96.0936 166.721 95.8727 166.03 95.8727C165.535 95.8727 165.121 95.9832 164.79 96.2041C164.455 96.425 164.291 96.7031 164.291 97.0345C164.291 97.3659 164.43 97.6604 164.708 97.9059C164.986 98.1513 165.612 98.4622 166.586 98.8304C168.087 99.4031 169.089 99.9881 169.597 100.585C170.096 101.179 170.349 101.911 170.349 102.782C170.349 103.788 169.965 104.643 169.196 105.335C168.427 106.03 167.555 106.378 166.586 106.378C166.009 106.378 165.436 106.321 164.872 106.202C164.295 106.075 163.89 106.014 163.657 106.014C163.24 106.014 162.925 106.137 162.7 106.378H162.225V106.374Z" stroke="#231F20" stroke-width="0.231951" stroke-miterlimit="10"/>
<path d="M172.317 106.374V102.357H172.788C173.827 104.541 175.087 105.633 176.563 105.633C177.067 105.633 177.5 105.486 177.864 105.188C178.228 104.889 178.408 104.533 178.408 104.12C178.408 103.67 178.245 103.281 177.913 102.95C177.578 102.623 176.858 102.242 175.753 101.809C174.342 101.26 173.413 100.724 172.959 100.209C172.509 99.6936 172.288 99.0595 172.288 98.3108C172.288 97.4109 172.624 96.6541 173.307 96.0445C173.986 95.4309 174.862 95.1282 175.929 95.1282C176.326 95.1282 177.013 95.2059 177.991 95.3573C178.38 95.4104 178.613 95.4391 178.691 95.4391C178.854 95.4391 179.063 95.3368 179.325 95.1282H179.795V98.3927H179.325C179.01 97.599 178.572 96.9813 178.003 96.5395C177.435 96.0936 176.805 95.8727 176.113 95.8727C175.618 95.8727 175.205 95.9832 174.87 96.2041C174.538 96.425 174.371 96.7031 174.371 97.0345C174.371 97.3659 174.51 97.6604 174.788 97.9059C175.066 98.1513 175.692 98.4622 176.666 98.8304C178.167 99.4031 179.169 99.9881 179.672 100.585C180.176 101.179 180.429 101.911 180.429 102.782C180.429 103.788 180.045 104.643 179.276 105.335C178.507 106.03 177.635 106.378 176.666 106.378C176.089 106.378 175.516 106.321 174.952 106.202C174.375 106.075 173.97 106.014 173.737 106.014C173.323 106.014 173.004 106.137 172.779 106.378H172.317V106.374Z" fill="#231F20"/>
<path d="M172.317 106.374V102.357H172.788C173.827 104.541 175.087 105.633 176.563 105.633C177.067 105.633 177.5 105.486 177.864 105.188C178.228 104.889 178.408 104.533 178.408 104.12C178.408 103.67 178.245 103.281 177.913 102.95C177.578 102.623 176.858 102.242 175.753 101.809C174.342 101.26 173.413 100.724 172.959 100.209C172.509 99.6936 172.288 99.0595 172.288 98.3108C172.288 97.4109 172.624 96.6541 173.307 96.0445C173.986 95.4309 174.862 95.1282 175.929 95.1282C176.326 95.1282 177.013 95.2059 177.991 95.3573C178.38 95.4104 178.613 95.4391 178.691 95.4391C178.854 95.4391 179.063 95.3368 179.325 95.1282H179.795V98.3927H179.325C179.01 97.599 178.572 96.9813 178.003 96.5395C177.435 96.0936 176.805 95.8727 176.113 95.8727C175.618 95.8727 175.205 95.9832 174.87 96.2041C174.538 96.425 174.371 96.7031 174.371 97.0345C174.371 97.3659 174.51 97.6604 174.788 97.9059C175.066 98.1513 175.692 98.4622 176.666 98.8304C178.167 99.4031 179.169 99.9881 179.672 100.585C180.176 101.179 180.429 101.911 180.429 102.782C180.429 103.788 180.045 104.643 179.276 105.335C178.507 106.03 177.635 106.378 176.666 106.378C176.089 106.378 175.516 106.321 174.952 106.202C174.375 106.075 173.97 106.014 173.737 106.014C173.323 106.014 173.004 106.137 172.779 106.378H172.317V106.374Z" stroke="#231F20" stroke-width="0.231951" stroke-miterlimit="10"/>
<path d="M71.3426 72.7922C68.5158 72.7922 66.3517 70.4849 66.5358 67.6623L69.8208 17.4102C70.0049 14.5875 72.4676 12.2803 75.2984 12.2803H106.467C109.298 12.2803 111.74 14.5916 111.903 17.4143L114.783 67.6582C114.947 70.4809 112.762 72.7922 109.936 72.7922H71.3426V72.7922Z" fill="#FFD100"/>
<path d="M112.893 73.4303H68.3768C67.62 73.4303 66.9204 73.1317 66.4132 72.5917C65.9059 72.0517 65.6523 71.3358 65.7054 70.579L69.3749 14.4116C69.4731 12.8857 70.8026 11.6421 72.3326 11.6421H109.433C110.967 11.6421 112.284 12.8857 112.37 14.4198L115.585 70.5872C115.63 71.3399 115.373 72.0558 114.861 72.5958C114.35 73.1358 113.654 73.4303 112.893 73.4303ZM72.3326 12.9225C71.4776 12.9225 70.7086 13.6466 70.6513 14.4975L66.9818 70.6649C66.9531 71.0658 67.0841 71.4381 67.35 71.7204C67.6118 72.0026 67.98 72.1581 68.3809 72.1581H112.898C113.298 72.1581 113.667 72.0026 113.933 71.7204C114.203 71.4381 114.333 71.0617 114.309 70.6608L111.089 14.4975C111.04 13.6466 110.279 12.9266 109.428 12.9266H72.3326V12.9225Z" fill="#231F20"/>
<path d="M100.134 18.5352C100.093 18.0033 99.1768 5.57532 94.2801 1.39856C92.9956 0.30221 91.5515 -0.151874 89.9806 0.0444873C86.2743 0.519026 81.7416 4.02898 81.1607 18.0279C81.1566 18.2447 81.1484 18.4165 81.1403 18.5311L82.6171 18.6211C82.6293 18.5024 82.6334 18.3224 82.6416 18.0933C83.1734 5.16623 87.0188 1.97537 90.1606 1.57446C91.3306 1.42719 92.3696 1.75856 93.3433 2.589C97.7491 6.34849 98.645 18.5229 98.6573 18.6497L100.134 18.5352Z" fill="#231F20"/>
<path d="M89.4283 30.19C89.547 31.0573 88.9538 31.8591 88.0906 31.9818C87.2356 32.1004 86.4461 31.4991 86.3356 30.6318C86.217 29.7605 86.8183 28.9627 87.6774 28.84C88.5365 28.7173 89.3138 29.3228 89.4283 30.19Z" fill="#231F20"/>
<path d="M95.2495 30.2596C95.3641 31.1351 94.7545 31.9287 93.9036 32.0514C93.0405 32.1782 92.251 31.581 92.1323 30.7055C92.0178 29.8464 92.6232 29.0405 93.4864 28.9219C94.3414 28.7992 95.1391 29.4005 95.2495 30.2596Z" fill="#231F20"/>
<path d="M79.2421 36.1177C79.2912 36.7641 80.408 51.8839 86.3561 56.9606C87.9229 58.2943 89.6778 58.8465 91.5883 58.6092C96.0964 58.0283 101.611 53.7616 102.314 36.7354C102.319 36.4736 102.327 36.2609 102.339 36.1218L100.543 36.0114C100.527 36.1586 100.523 36.3755 100.515 36.6577C99.8682 52.3789 95.1882 56.2611 91.3674 56.752C89.9478 56.9361 88.6878 56.527 87.5015 55.5206C82.1384 50.9471 81.0502 36.1423 81.038 35.9868L79.2421 36.1177Z" fill="#231F20"/>
</svg>
