<svg width="191" height="41" viewBox="0 0 191 41" fill="none" xmlns="http://www.w3.org/2000/svg">
<path d="M2.34903 40.2805C1.57596 40.2805 0.984452 39.6492 1.03472 38.8778L3.02504 8.40504C3.07531 7.63326 3.74915 7.00232 4.52266 7.00232H24.5082C25.2813 7.00232 25.9504 7.63413 25.9946 8.4059L27.7401 38.8774C27.7843 39.6492 27.188 40.281 26.4145 40.281H2.34903V40.2805Z" fill="#FFD100"/>
<path d="M26.7395 40.7153H2.02449C1.61498 40.7153 1.23884 40.5536 0.964107 40.2611C0.689804 39.9682 0.552869 39.5821 0.579736 39.1739L2.61209 8.05281C2.66583 7.2338 3.37694 6.56689 4.19768 6.56689H24.8328C25.6544 6.56689 26.3625 7.23554 26.4093 8.05671L28.1921 39.1769C28.2155 39.5847 28.0764 39.9704 27.7999 40.262C27.5252 40.5541 27.1481 40.7153 26.7395 40.7153ZM4.19811 7.4366C3.83237 7.4366 3.50477 7.74428 3.48007 8.10871L1.44771 39.2302C1.43688 39.3962 1.49018 39.5513 1.59895 39.6662C1.70728 39.7823 1.85808 39.8456 2.02449 39.8456H26.7391C26.9055 39.8456 27.0576 39.7814 27.1681 39.6648C27.2777 39.5483 27.3332 39.3927 27.3241 39.2263L25.5413 8.10568C25.5205 7.74341 25.196 7.4366 24.8328 7.4366H4.19811Z" fill="#231F20"/>
<path d="M19.6041 10.4409C19.582 10.1493 19.0768 3.31383 16.3857 1.01713C15.6781 0.413494 14.8855 0.163024 14.0201 0.273092C11.9813 0.533962 9.48957 2.46448 9.1702 10.1632C9.16717 10.2815 9.16457 10.3772 9.15894 10.4405L9.97145 10.4895C9.97838 10.424 9.98011 10.3252 9.98401 10.1978C10.2761 3.08936 12.3929 1.3339 14.1194 1.11203C14.762 1.03013 15.3318 1.21387 15.8679 1.67017C18.2928 3.73807 18.7855 10.4327 18.7907 10.5029L19.6041 10.4409Z" fill="#231F20"/>
<path d="M13.7178 16.8504C13.7819 17.328 13.4561 17.7691 12.9816 17.8376C12.5109 17.903 12.0776 17.5724 12.0152 17.0961C11.9515 16.6177 12.2808 16.1783 12.7523 16.1094C13.2264 16.0405 13.6558 16.3733 13.7178 16.8504Z" fill="#231F20"/>
<path d="M16.9192 16.8886C16.9838 17.3705 16.6462 17.8068 16.1786 17.8753C15.7054 17.9438 15.2699 17.6162 15.2066 17.1352C15.1425 16.6633 15.4753 16.2204 15.9503 16.1532C16.4196 16.0865 16.8572 16.4167 16.9192 16.8886Z" fill="#231F20"/>
<path d="M8.11597 20.1113C8.1424 20.4667 8.75644 28.7807 12.0294 31.5736C12.8909 32.3076 13.8555 32.6123 14.9072 32.4788C17.3859 32.1616 20.4184 29.8133 20.8067 20.4493C20.8093 20.305 20.8132 20.1893 20.8202 20.1131L19.8326 20.0528C19.8248 20.1334 19.8217 20.2522 19.817 20.4077C19.4608 29.0537 16.8872 31.1888 14.7872 31.4587C14.005 31.5584 13.3121 31.3348 12.66 30.7797C9.71152 28.2637 9.11265 20.1226 9.10484 20.0372L8.11597 20.1113Z" fill="#231F20"/>
<path d="M42.8368 31.1456H34.3772V30.7348C35.1087 30.587 35.584 30.3742 35.8059 30.096C36.026 29.8191 36.1378 29.3754 36.1378 28.7661V19.4324C36.1378 18.7911 36.0148 18.3356 35.7712 18.0661C35.5264 17.7957 35.0627 17.6102 34.3776 17.5088V17.098H41.7825C43.2966 17.098 44.4788 17.3858 45.3307 17.9599C46.1826 18.5337 46.6073 19.3457 46.6073 20.3931C46.6073 22.0186 45.5699 23.1214 43.4894 23.6986V23.7459C46.1467 24.2312 47.4766 25.4662 47.4766 27.4513C47.4766 28.5538 47.0536 29.4451 46.2104 30.125C45.3667 30.8058 44.2421 31.1456 42.8368 31.1456ZM39.2323 17.8954V23.5366H40.3698C41.2694 23.5366 41.9723 23.2852 42.4806 22.7852C42.9894 22.2855 43.2429 21.5904 43.2429 20.6982C43.2429 18.8301 42.2111 17.8954 40.1467 17.8954H39.2323ZM40.8985 24.3218H39.2323V28.6257C39.2323 29.251 39.3888 29.6934 39.7034 29.9556C40.0149 30.2186 40.5393 30.3491 41.2738 30.3491C42.1561 30.3491 42.8503 30.0847 43.3542 29.5565C43.8586 29.03 44.1091 28.3011 44.1091 27.3703C44.1091 26.4482 43.8279 25.7098 43.2602 25.1551C42.6934 24.5991 41.9069 24.3218 40.8985 24.3218Z" fill="#231F20"/>
<path d="M42.8369 31.2604H34.2642V30.6425L34.3556 30.6243C35.0554 30.4817 35.5135 30.2802 35.7163 30.0254C35.9204 29.7706 36.0235 29.3468 36.0235 28.7661V19.4324C36.0235 18.824 35.9091 18.3907 35.6859 18.1428C35.4615 17.8936 35.0151 17.719 34.3617 17.6211L34.2646 17.6072V16.9841H41.7826C43.3127 16.9841 44.5295 17.2809 45.3945 17.865C46.2754 18.46 46.7231 19.3111 46.7231 20.394C46.7231 21.9761 45.7611 23.0898 43.8661 23.706C46.3378 24.246 47.5898 25.5048 47.5898 27.4522C47.5898 28.5854 47.1508 29.5145 46.2828 30.2161C45.4205 30.909 44.2626 31.2604 42.8369 31.2604ZM34.4917 31.032H42.8369C44.2088 31.032 45.3204 30.6975 46.1389 30.0367C46.9488 29.3823 47.3618 28.5126 47.3618 27.4518C47.3618 25.5126 46.0882 24.3383 43.4687 23.8594L43.376 23.8421V23.6124L43.4587 23.5899C45.5015 23.0218 46.4925 21.9766 46.4925 20.3936C46.4925 19.3765 46.0926 18.6121 45.2671 18.0553C44.4398 17.4958 43.2663 17.2129 41.7826 17.2129H34.4917V17.4113C35.1551 17.5205 35.6032 17.7099 35.8549 17.9885C36.1171 18.2798 36.2506 18.7651 36.2506 19.4324V28.7661C36.2506 29.3988 36.1318 29.8703 35.8939 30.1688C35.6634 30.4587 35.2041 30.6754 34.4917 30.8288V31.032ZM41.2738 30.4626C40.5029 30.4626 39.9656 30.3257 39.6293 30.044C39.2905 29.7606 39.1193 29.2835 39.1193 28.6257V24.2065H40.8986C41.933 24.2065 42.7546 24.499 43.3413 25.0723C43.9267 25.6474 44.2249 26.4204 44.2249 27.3703C44.2249 28.3271 43.9597 29.0894 43.4366 29.6354C42.9136 30.1844 42.1852 30.4626 41.2738 30.4626ZM39.3468 24.4353V28.6253C39.3468 29.212 39.4915 29.6302 39.7758 29.8677C40.0657 30.1112 40.5684 30.2343 41.2738 30.2343C42.1202 30.2343 42.7923 29.9799 43.272 29.4781C43.7517 28.9754 43.9965 28.266 43.9965 27.3699C43.9965 26.4841 43.7213 25.7652 43.181 25.2357C42.6389 24.704 41.8714 24.4353 40.899 24.4353H39.3468ZM40.3695 23.6501H39.1193V17.7814H40.1467C42.2779 17.7814 43.3573 18.7629 43.3573 20.6978C43.3573 21.6169 43.0895 22.3466 42.5604 22.8666C42.0331 23.3866 41.2968 23.6501 40.3695 23.6501ZM39.3468 23.4213H40.3695C41.2344 23.4213 41.9169 23.1799 42.3992 22.7041C42.8833 22.2296 43.1281 21.5536 43.1281 20.6982C43.1281 18.8899 42.1531 18.0107 40.1463 18.0107H39.3464V23.4213H39.3468Z" fill="#231F20"/>
<path d="M53.1512 21.7306V24.6145H53.1975C54.0581 22.6926 55.0579 21.7306 56.1997 21.7306C56.8241 21.7306 57.3602 21.9863 57.8065 22.4985L57.2081 25.2359C56.3882 24.4541 55.707 24.0646 55.1666 24.0646C54.7697 24.0646 54.4217 24.1573 54.1249 24.3449C53.828 24.5326 53.5017 24.8693 53.1512 25.3533V29.0588C53.1512 29.6381 53.2526 30.0325 53.4554 30.2427C53.6582 30.455 54.0681 30.6188 54.6882 30.7354V31.1462H48.9187V30.7354C49.5116 30.595 49.9111 30.4121 50.1182 30.1846C50.3254 29.958 50.4298 29.5835 50.4298 29.0588V24.2747C50.4298 23.704 50.2994 23.2785 50.0372 22.9968C49.775 22.7151 49.3547 22.5522 48.7766 22.505V22.0942L52.7408 21.7306H53.1512Z" fill="#231F20"/>
<path d="M54.8018 31.2605H48.8035V30.6447L48.8919 30.6252C49.46 30.4905 49.8452 30.3158 50.035 30.1074C50.2218 29.9037 50.3176 29.551 50.3176 29.0592V24.2751C50.3176 23.7378 50.1945 23.3335 49.9553 23.0756C49.7135 22.8165 49.3148 22.6635 48.7688 22.6184L48.6631 22.6098V21.9892L52.7313 21.617H53.2643V24.201C54.1058 22.4854 55.0912 21.617 56.1997 21.617C56.8558 21.617 57.4256 21.8878 57.8936 22.4226L57.93 22.4659L57.2766 25.4594L57.1301 25.3194C56.3345 24.5633 55.6741 24.1785 55.1671 24.1785C54.7931 24.1785 54.4629 24.2669 54.186 24.4415C53.9078 24.6161 53.5992 24.9355 53.2647 25.3905V29.0592C53.2647 29.603 53.3574 29.9757 53.5386 30.1646C53.724 30.3566 54.118 30.5117 54.7077 30.6239L54.8018 30.6413V31.2605ZM49.0323 31.0321H54.5725V30.8302C53.9771 30.7084 53.5845 30.5425 53.373 30.3223C53.1468 30.087 53.0368 29.6732 53.0368 29.0592V25.3173L53.0584 25.2869C53.422 24.7856 53.7509 24.445 54.0638 24.2482C54.378 24.0506 54.7489 23.9505 55.1662 23.9505C55.7096 23.9505 56.3544 24.2989 57.1379 25.0161L57.6813 22.5313C57.267 22.0755 56.77 21.8454 56.1993 21.8454C55.1125 21.8454 54.1388 22.7931 53.3015 24.6612L53.2712 24.7292H53.0363V21.8454H52.7408L48.891 22.1981V22.4C49.4431 22.4607 49.8574 22.6349 50.1195 22.9188C50.4021 23.2208 50.5442 23.6771 50.5442 24.2747V29.0587C50.5442 29.6182 50.4328 30.0112 50.2036 30.2612C49.9891 30.4961 49.6052 30.6807 49.0314 30.8246V31.0321H49.0323Z" fill="#231F20"/>
<path d="M61.2305 31.5106C60.4799 31.5106 59.8395 31.2775 59.3138 30.8121C58.7864 30.3471 58.5212 29.7855 58.5212 29.1298C58.5212 28.4729 58.7834 27.9282 59.3064 27.494C59.8308 27.0594 60.925 26.6238 62.5912 26.1866C63.3954 25.9756 63.9748 25.8027 64.3254 25.6701C64.3254 24.8342 64.1473 24.2279 63.7863 23.8531C63.4271 23.4769 62.8564 23.2893 62.0751 23.2893C60.8465 23.2893 59.9409 23.7937 59.3554 24.8021H59.0018C59.2436 23.8258 59.7203 23.0692 60.4275 22.5331C61.133 21.9984 62.0126 21.7306 63.06 21.7306C64.2712 21.7306 65.2376 22.0274 65.9608 22.6224C66.6836 23.2156 67.0459 24.0481 67.0459 25.1189V29.3872C67.0459 30.1928 67.23 30.595 67.5979 30.595C67.9806 30.595 68.2194 30.3137 68.3138 29.7508H68.6991C68.6527 30.3137 68.4369 30.7475 68.0543 31.0526C67.6716 31.3576 67.1503 31.5106 66.4951 31.5106C65.94 31.5106 65.4924 31.4105 65.1522 31.2112C64.8116 31.0114 64.529 30.6847 64.302 30.231L64.0918 30.4312C63.2776 31.1505 62.3242 31.5106 61.2305 31.5106ZM64.302 29.5861V26.1511C63.1081 26.6598 62.3156 27.0971 61.9273 27.4645C61.542 27.832 61.3479 28.3048 61.3479 28.8837C61.3479 29.3755 61.4623 29.7734 61.6941 30.0741C61.9247 30.3748 62.2272 30.5252 62.6024 30.5252C63.1094 30.5252 63.6758 30.2123 64.302 29.5861Z" fill="#231F20"/>
<path d="M66.4956 31.624C65.9232 31.624 65.4508 31.5183 65.0946 31.3094C64.7713 31.1205 64.4949 30.8206 64.2717 30.4176L64.1703 30.5134C63.3357 31.2509 62.3477 31.624 61.2305 31.624C60.4553 31.624 59.7845 31.3801 59.2385 30.8982C58.6864 30.412 58.4082 29.8166 58.4082 29.1297C58.4082 28.4407 58.6851 27.8605 59.2341 27.4055C59.7776 26.9561 60.8657 26.5215 62.5622 26.0747C63.3054 25.8806 63.8605 25.7168 64.211 25.5907C64.2011 24.8284 64.0299 24.2707 63.704 23.931C63.3695 23.5817 62.8218 23.4036 62.0755 23.4036C60.8804 23.4036 60.0224 23.8803 59.4547 24.8596L59.4213 24.916H58.8576L58.8922 24.7738C59.1401 23.7763 59.6324 22.9911 60.36 22.442C61.0828 21.8939 61.9915 21.6161 63.0605 21.6161C64.2934 21.6161 65.2948 21.9242 66.035 22.5326C66.7812 23.1484 67.1608 24.0164 67.1608 25.1179V29.3863C67.1608 30.1121 67.3085 30.48 67.5984 30.48C67.7159 30.48 68.0751 30.48 68.1999 29.7308L68.2173 29.6359H68.8244L68.8144 29.7598C68.765 30.3518 68.5332 30.8176 68.1276 31.1413C67.7228 31.4611 67.1751 31.624 66.4956 31.624ZM64.3354 30.0424L64.4047 30.1802C64.6205 30.6118 64.8914 30.9255 65.2116 31.1118C65.5319 31.3003 65.9622 31.3957 66.4952 31.3957C67.1226 31.3957 67.6223 31.2492 67.9833 30.9623C68.3165 30.6971 68.5076 30.3379 68.573 29.8656H68.4079C68.2922 30.425 68.0197 30.7088 67.598 30.7088C67.1547 30.7088 66.9315 30.2642 66.9315 29.3867V25.1183C66.9315 24.0887 66.581 23.2792 65.8885 22.7098C65.1917 22.1361 64.2383 21.8449 63.0605 21.8449C62.0422 21.8449 61.1798 22.1071 60.496 22.6245C59.8486 23.1154 59.3949 23.8096 59.1514 24.6885H59.2892C59.8963 23.6844 60.8323 23.1752 62.0755 23.1752C62.8855 23.1752 63.4882 23.3767 63.8691 23.7737C64.2487 24.1693 64.4398 24.8072 64.4398 25.6704V25.7501L64.3675 25.7779C64.0095 25.9126 63.4375 26.0829 62.6203 26.2979C60.9788 26.7282 59.8889 27.1615 59.3793 27.5832C58.8797 27.997 58.6361 28.5031 58.6361 29.1306C58.6361 29.7585 58.8823 30.2803 59.3897 30.727C59.8941 31.1712 60.5125 31.3965 61.2314 31.3965C62.2905 31.3965 63.2278 31.0429 64.0178 30.3461L64.3354 30.0424ZM62.6025 30.6395C62.1912 30.6395 61.8537 30.4714 61.6028 30.1425C61.3579 29.8235 61.2331 29.3997 61.2331 28.8832C61.2331 28.2739 61.4403 27.7691 61.8476 27.3817C62.2502 27.0008 63.0384 26.5639 64.257 26.0457L64.4164 25.9785V29.6342L64.3844 29.6684C63.7383 30.3119 63.1398 30.6395 62.6025 30.6395ZM64.1889 26.3247C63.0995 26.7962 62.365 27.207 62.0071 27.5468C61.6405 27.8952 61.4624 28.332 61.4624 28.8832C61.4624 29.3481 61.5698 29.7252 61.7856 30.0034C61.9941 30.2772 62.261 30.4103 62.6029 30.4103C63.0679 30.4103 63.6013 30.1169 64.1894 29.5388V26.3247H64.1889Z" fill="#231F20"/>
<path d="M73.9178 21.7306V23.9467H73.9642C74.8322 22.469 75.9766 21.7306 77.3992 21.7306C78.2902 21.7306 79.0425 22.0292 79.6509 22.6272C80.2606 23.2256 80.5652 24.0247 80.5652 25.0253V28.9886C80.5652 29.5589 80.6666 29.9601 80.8707 30.1907C81.0735 30.4216 81.4458 30.6028 81.9835 30.7354V31.1462H76.4156V30.7354C76.946 30.6188 77.3182 30.4411 77.5297 30.2024C77.7399 29.964 77.8456 29.5983 77.8456 29.1064V25.3537C77.8456 24.6734 77.6991 24.1447 77.4053 23.7651C77.1128 23.3855 76.6998 23.1957 76.1694 23.1957C75.2378 23.1957 74.4872 23.7244 73.9178 24.7791V29.012C73.9178 29.5515 74.0105 29.935 74.1973 30.1616C74.3858 30.3883 74.7394 30.5802 75.2551 30.7354V31.1462H69.7786V30.7354C70.309 30.6028 70.6799 30.4238 70.8853 30.1959C71.0937 29.9697 71.1969 29.6299 71.1969 29.1766V24.1109C71.1969 23.5957 71.0781 23.22 70.8402 22.986C70.601 22.7511 70.1768 22.5912 69.5667 22.5058V22.095L73.5061 21.7315H73.9178V21.7306Z" fill="#231F20"/>
<path d="M82.0983 31.2605H76.3016V30.6439L76.3913 30.6244C76.8957 30.513 77.2488 30.3453 77.4447 30.126C77.6358 29.9111 77.7316 29.5675 77.7316 29.106V25.3532C77.7316 24.7019 77.5925 24.1919 77.3156 23.834C77.043 23.4821 76.6682 23.3096 76.1694 23.3096C75.2945 23.3096 74.5773 23.814 74.0322 24.8077V29.0115C74.0322 29.5215 74.1175 29.8838 74.2857 30.0879C74.4581 30.2959 74.7957 30.477 75.2867 30.6261L75.3677 30.6499V31.2597H69.6637V30.6452L69.7508 30.6244C70.2578 30.4974 70.6101 30.3275 70.8012 30.1187C70.988 29.9146 71.0824 29.5969 71.0824 29.1753V24.1096C71.0824 23.6286 70.9737 23.278 70.7592 23.0657C70.539 22.8499 70.1334 22.6991 69.551 22.6167L69.4526 22.602V21.9892L73.4966 21.617H74.0326V23.6199C74.8988 22.29 76.0307 21.617 77.3996 21.617C78.3183 21.617 79.1035 21.9294 79.731 22.5465C80.3611 23.1636 80.68 23.9973 80.68 25.0256V28.989C80.68 29.5289 80.774 29.9068 80.9569 30.1156C81.1437 30.3271 81.499 30.4987 82.0117 30.6257L82.0988 30.6465V31.2605H82.0983ZM76.5304 31.0321H81.8708V30.825C81.3508 30.6872 80.9959 30.5048 80.7857 30.2656C80.5613 30.0112 80.4512 29.5935 80.4512 28.9885V25.0252C80.4512 24.0615 80.1557 23.2823 79.5702 22.709C78.9865 22.1361 78.2559 21.8449 77.3996 21.8449C76.0277 21.8449 74.9032 22.5717 74.0629 24.0043L74.0296 24.0602H73.8038V21.8449H73.507L69.6819 22.1977V22.4057C70.2686 22.4993 70.6742 22.6627 70.9208 22.9032C71.1799 23.1597 71.3121 23.5662 71.3121 24.11V29.1757C71.3121 29.6567 71.1977 30.0255 70.9715 30.2725C70.7587 30.5056 70.4051 30.6868 69.892 30.8246V31.0317H75.1411V30.8194C74.6414 30.6599 74.3034 30.4675 74.111 30.2335C73.9039 29.9843 73.8038 29.5835 73.8038 29.0115L73.8168 24.7245C74.4066 23.6342 75.1974 23.0813 76.1698 23.0813C76.7349 23.0813 77.1825 23.288 77.4971 23.6949C77.8044 24.0927 77.9608 24.6512 77.9608 25.3532V29.106C77.9608 29.6247 77.8447 30.0186 77.6146 30.2773C77.397 30.5238 77.0421 30.7032 76.5308 30.8263V31.0321H76.5304Z" fill="#231F20"/>
<path d="M93.7933 16.113H94.2032V28.6716C94.2032 29.4222 94.3103 29.9196 94.5248 30.1666C94.7393 30.4128 95.2346 30.6021 96.0085 30.7347V31.1455H89.2324C87.3795 31.1455 85.952 30.7317 84.951 29.9032C83.95 29.0746 83.45 27.9371 83.45 26.4906C83.45 25.0836 83.8933 23.9383 84.7816 23.056C85.6682 22.172 86.8231 21.7304 88.2457 21.7304C89.489 21.7304 90.571 22.0355 91.494 22.6447V18.4938C91.494 17.8767 91.3289 17.4425 90.9957 17.1929C90.6637 16.9424 90.0831 16.8059 89.2541 16.7821V16.3722L93.7933 16.113ZM91.494 28.5312V23.8408C90.8059 22.8644 89.9583 22.3752 88.9499 22.3752C88.1833 22.3752 87.5766 22.7292 87.1273 23.4365C86.6766 24.1441 86.4534 25.1035 86.4534 26.3147C86.4534 27.652 86.7737 28.6994 87.4141 29.4573C88.0559 30.2156 88.8688 30.5948 89.8525 30.5948C90.4609 30.5948 90.8899 30.4435 91.1317 30.1385C91.3722 29.8325 91.494 29.2978 91.494 28.5312Z" fill="#231F20"/>
<path d="M96.1228 31.2604H89.2323C87.3603 31.2604 85.8956 30.8332 84.8786 29.9912C83.8559 29.1436 83.3354 27.9662 83.3354 26.4907C83.3354 25.0598 83.7948 23.8764 84.7 22.9737C85.6057 22.0732 86.7978 21.6169 88.2452 21.6169C89.4273 21.6169 90.4795 21.8921 91.3791 22.4377V18.4939C91.3791 17.9171 91.227 17.5102 90.9271 17.284C90.6155 17.0491 90.0522 16.9195 89.251 16.8966L89.1409 16.8931V16.2643L93.7858 16H94.3175V28.6726C94.3175 29.3919 94.4163 29.8694 94.6105 30.0922C94.809 30.3175 95.2843 30.4956 96.0275 30.6239L96.1233 30.6399V31.2604H96.1228ZM88.2456 21.8449C86.862 21.8449 85.7231 22.2782 84.8612 23.1367C84.0006 23.9942 83.5647 25.1222 83.5647 26.4907C83.5647 27.8951 84.0557 29.0132 85.025 29.8153C85.9987 30.623 87.4158 31.0321 89.2323 31.0321H95.894V30.8314C95.1405 30.6936 94.6655 30.5004 94.4393 30.2417C94.2031 29.9713 94.0887 29.4586 94.0887 28.6717V16.2279H93.7932L89.3684 16.4801V16.6721C90.1696 16.7046 90.7243 16.8467 91.0649 17.1015C91.4254 17.3732 91.6083 17.8421 91.6083 18.4939V22.8576L91.4315 22.7393C90.5319 22.1456 89.4598 21.8449 88.2456 21.8449ZM89.8524 30.7092C88.8367 30.7092 87.9878 30.3132 87.3269 29.5314C86.6709 28.7562 86.3389 27.6741 86.3389 26.3148C86.3389 25.0862 86.5708 24.0974 87.0301 23.375C87.4994 22.6361 88.1455 22.2609 88.9498 22.2609C89.9928 22.2609 90.8812 22.7709 91.5884 23.7758L91.6087 23.8049V28.5317C91.6087 29.3308 91.4826 29.879 91.2205 30.2087C90.9561 30.5411 90.4972 30.7092 89.8524 30.7092ZM88.9498 22.4897C88.2196 22.4897 87.6545 22.8199 87.2229 23.4972C86.7883 24.1823 86.5664 25.13 86.5664 26.3143C86.5664 27.6182 86.881 28.65 87.5011 29.3837C88.1169 30.1108 88.9082 30.4804 89.8524 30.4804C90.4231 30.4804 90.8231 30.3405 91.0419 30.0662C91.2651 29.7828 91.3795 29.2671 91.3795 28.5309V23.8777C90.7217 22.9568 89.9044 22.4897 88.9498 22.4897Z" fill="#231F20"/>
<path d="M97.3209 31.5106V28.0157H97.7325C98.6365 29.915 99.7307 30.8649 101.014 30.8649C101.452 30.8649 101.828 30.7354 102.147 30.4775C102.463 30.2188 102.623 29.9094 102.623 29.5493C102.623 29.1589 102.478 28.82 102.188 28.5344C101.9 28.2489 101.274 27.9178 100.312 27.5412C99.0846 27.0645 98.2764 26.6009 97.8851 26.1511C97.4938 25.7013 97.2983 25.1514 97.2983 24.5018C97.2983 23.7196 97.5939 23.0609 98.185 22.5292C98.7747 21.9975 99.5339 21.731 100.466 21.731C100.809 21.731 101.406 21.7978 102.259 21.9304C102.595 21.9776 102.798 22.0014 102.868 22.0014C103.008 22.0014 103.193 21.9117 103.42 21.7315H103.83V24.5677H103.42C103.146 23.8808 102.763 23.3426 102.271 22.9565C101.778 22.5691 101.23 22.3754 100.628 22.3754C100.199 22.3754 99.8394 22.4712 99.55 22.6631C99.2601 22.8551 99.1153 23.0965 99.1153 23.3855C99.1153 23.6754 99.2371 23.9276 99.4806 24.1434C99.7224 24.3588 100.266 24.6266 101.11 24.9468C102.414 25.4473 103.287 25.9561 103.726 26.4717C104.162 26.9874 104.38 27.6236 104.38 28.3819C104.38 29.2564 104.047 29.9965 103.378 30.6023C102.71 31.2073 101.953 31.511 101.11 31.511C100.609 31.511 100.114 31.4595 99.6197 31.3581C99.1201 31.2484 98.7691 31.1934 98.5663 31.1934C98.2057 31.1934 97.9275 31.2983 97.7334 31.5106H97.3209Z" fill="#231F20"/>
<path d="M101.11 31.624C100.605 31.624 100.097 31.572 99.5969 31.4689C99.1059 31.3623 98.758 31.3073 98.5651 31.3073C98.2349 31.3073 97.9901 31.3991 97.8159 31.5876L97.7812 31.624H97.2062V27.9012H97.8046L97.835 27.9662C98.7129 29.8136 99.7824 30.75 101.014 30.75C101.427 30.75 101.774 30.6321 102.074 30.3877C102.364 30.1503 102.508 29.8755 102.508 29.5488C102.508 29.1865 102.376 28.8814 102.108 28.6149C101.831 28.3424 101.214 28.0165 100.269 27.6477C99.0128 27.1589 98.2046 26.6935 97.7986 26.2251C97.3899 25.7549 97.1841 25.1755 97.1841 24.5008C97.1841 23.6879 97.4944 22.9954 98.1084 22.4429C98.7155 21.8939 99.5081 21.6161 100.464 21.6161C100.812 21.6161 101.422 21.6837 102.274 21.8167C102.704 21.8752 102.83 21.8848 102.866 21.8848C102.946 21.8848 103.093 21.8427 103.346 21.6399L103.378 21.6161H103.943V24.682H103.341L103.313 24.61C103.046 23.9435 102.674 23.4175 102.199 23.0444C101.729 22.6756 101.2 22.4888 100.627 22.4888C100.222 22.4888 99.8803 22.5794 99.6125 22.7566C99.3547 22.9278 99.2286 23.1332 99.2286 23.3841C99.2286 23.6419 99.336 23.8616 99.5544 24.0562C99.785 24.2612 100.321 24.5234 101.148 24.8384C102.467 25.3432 103.362 25.868 103.811 26.3958C104.263 26.9297 104.494 27.597 104.494 28.3801C104.494 29.284 104.143 30.0593 103.455 30.6846C102.769 31.309 101.979 31.624 101.11 31.624ZM98.5656 31.0793C98.777 31.0793 99.1306 31.1331 99.6433 31.2453C100.127 31.3454 100.62 31.3961 101.11 31.3961C101.92 31.3961 102.657 31.1006 103.302 30.5164C103.942 29.9371 104.265 29.2181 104.265 28.3814C104.265 27.6542 104.054 27.0363 103.636 26.5449C103.214 26.0465 102.349 25.5443 101.068 25.0533C100.204 24.7244 99.6593 24.454 99.4028 24.2283C99.135 23.9912 99.0015 23.7074 99.0015 23.385C99.0015 23.0561 99.164 22.7809 99.4855 22.5677C99.7928 22.3649 100.177 22.2605 100.627 22.2605C101.255 22.2605 101.83 22.4633 102.34 22.8663C102.83 23.2493 103.218 23.7841 103.496 24.4536H103.715V21.8449H103.458C103.224 22.026 103.031 22.1144 102.867 22.1144C102.791 22.1144 102.586 22.0915 102.243 22.0434C101.4 21.9116 100.803 21.8449 100.465 21.8449C99.5683 21.8449 98.8269 22.1027 98.2601 22.6136C97.698 23.1206 97.4124 23.7555 97.4124 24.5013C97.4124 25.1183 97.601 25.6496 97.9719 26.0747C98.3472 26.5093 99.1484 26.9665 100.352 27.4354C101.34 27.8206 101.966 28.1539 102.268 28.4533C102.579 28.7597 102.736 29.1293 102.736 29.5492C102.736 29.9431 102.563 30.2855 102.22 30.5654C101.882 30.8393 101.477 30.9784 101.014 30.9784C99.7031 30.9784 98.5747 30.0198 97.6603 28.13H97.4358V31.3957H97.6837C97.8978 31.1851 98.1946 31.0793 98.5656 31.0793Z" fill="#231F20"/>
<path d="M120.761 21.847H121.173V26.2103H120.761C120.652 25.5802 120.429 25.1296 120.093 24.8587C119.757 24.5862 119.253 24.451 118.581 24.451H116.4V28.7895C116.4 29.4149 116.526 29.8681 116.776 30.1502C117.025 30.4315 117.475 30.6278 118.124 30.7357V31.1465H111.535V30.7357C112.225 30.6278 112.691 30.4219 112.932 30.1212C113.174 29.82 113.293 29.2671 113.293 28.4606V19.4082C113.293 18.8379 113.18 18.4289 112.95 18.1775C112.721 17.9275 112.248 17.7052 111.536 17.5097V17.0989H121.491L121.772 19.7375H121.362C121.112 19.081 120.791 18.6104 120.403 18.324C120.012 18.0393 119.486 17.8958 118.824 17.8958H116.402V23.6532H118.582C119.217 23.6532 119.691 23.524 120.006 23.2662C120.322 23.0084 120.574 22.5352 120.761 21.847Z" fill="#231F20"/>
<path d="M118.238 31.2604H111.42V30.6381L111.516 30.623C112.175 30.5181 112.621 30.3253 112.842 30.0492C113.066 29.7706 113.179 29.2358 113.179 28.4606V19.4082C113.179 18.87 113.073 18.4826 112.865 18.2551C112.65 18.0223 112.193 17.8083 111.503 17.6189L111.42 17.5972V16.9841H121.591L121.898 19.8519H121.281L121.253 19.7774C121.013 19.1451 120.703 18.6871 120.334 18.4154C119.966 18.1467 119.457 18.0107 118.822 18.0107H116.514V23.5387H118.581C119.185 23.5387 119.64 23.4178 119.934 23.1778C120.23 22.9364 120.471 22.4788 120.651 21.818L120.674 21.7335H121.286V26.3242H120.667L120.649 26.2293C120.545 25.6309 120.334 25.2006 120.022 24.9471C119.708 24.6936 119.222 24.5645 118.58 24.5645H116.514V28.7895C116.514 29.3828 116.632 29.8152 116.86 30.0739C117.092 30.3331 117.522 30.5185 118.143 30.6238L118.238 30.6386V31.2604ZM111.648 31.032H118.011V30.8314C117.388 30.7157 116.943 30.5112 116.69 30.2256C116.421 29.9227 116.285 29.4395 116.285 28.7891V24.337H118.58C119.277 24.337 119.809 24.4817 120.165 24.7694C120.503 25.0433 120.736 25.4888 120.857 26.095H121.058V21.9605H120.85C120.659 22.6248 120.399 23.0937 120.079 23.355C119.742 23.6289 119.238 23.7671 118.581 23.7671H116.286V17.7814H118.823C119.507 17.7814 120.06 17.9326 120.469 18.2312C120.861 18.5181 121.186 18.9861 121.438 19.6227H121.644L121.387 17.2124H111.648V17.4226C112.344 17.618 112.797 17.8412 113.033 18.0999C113.281 18.3703 113.407 18.8106 113.407 19.4073V28.4597C113.407 29.3008 113.281 29.8668 113.022 30.1909C112.771 30.5038 112.322 30.714 111.649 30.8314V31.032H111.648Z" fill="#231F20"/>
<path d="M134.21 26.6082C134.21 27.9996 133.693 29.1645 132.657 30.1026C131.622 31.0399 130.26 31.5101 128.571 31.5101C126.884 31.5101 125.516 31.0421 124.472 30.1083C123.429 29.1744 122.908 28.0074 122.908 26.6078C122.908 25.7406 123.147 24.9156 123.628 24.133C124.109 23.3521 124.77 22.7558 125.61 22.3459C126.449 21.9359 127.437 21.7301 128.571 21.7301C130.268 21.7301 131.631 22.199 132.663 23.1367C133.695 24.0753 134.21 25.2323 134.21 26.6082ZM131.209 26.6147C131.209 25.2679 130.981 24.2248 130.524 23.4851C130.067 22.7445 129.415 22.3753 128.572 22.3753C127.704 22.3753 127.044 22.7558 126.59 23.5142C126.136 24.2734 125.909 25.3623 125.909 26.7785C125.909 28.023 126.15 29.0154 126.63 29.7551C127.112 30.4948 127.757 30.8649 128.571 30.8649C129.4 30.8649 130.047 30.4909 130.512 29.7434C130.977 28.9968 131.209 27.952 131.209 26.6147Z" fill="#231F20"/>
<path d="M128.571 31.6241C126.862 31.6241 125.457 31.144 124.396 30.1928C123.332 29.2416 122.793 28.0347 122.793 26.6082C122.793 25.7229 123.042 24.8709 123.531 24.074C124.022 23.278 124.703 22.6609 125.561 22.2427C126.411 21.8263 127.425 21.617 128.571 21.617C130.288 21.617 131.691 22.1002 132.74 23.0535C133.791 24.0099 134.325 25.205 134.325 26.6082C134.325 28.0265 133.79 29.2308 132.735 30.1876C131.681 31.1409 130.28 31.6241 128.571 31.6241ZM128.571 21.8449C127.46 21.8449 126.48 22.0486 125.661 22.449C124.843 22.8473 124.194 23.4344 123.725 24.1941C123.258 24.9541 123.022 25.7662 123.022 26.6078C123.022 27.9667 123.537 29.1155 124.55 30.0229C125.567 30.9333 126.92 31.3957 128.571 31.3957C130.222 31.3957 131.57 30.9312 132.58 30.0173C133.586 29.1068 134.097 27.9589 134.097 26.6082C134.097 25.2722 133.589 24.133 132.586 23.2221C131.581 22.3077 130.229 21.8449 128.571 21.8449ZM128.571 30.9784C127.721 30.9784 127.036 30.588 126.533 29.8166C126.043 29.0618 125.794 28.0395 125.794 26.7785C125.794 25.3485 126.029 24.2309 126.491 23.4561C126.965 22.6631 127.664 22.2609 128.571 22.2609C129.454 22.2609 130.144 22.6522 130.62 23.4245C131.088 24.1793 131.324 25.2523 131.324 26.6147C131.324 27.968 131.084 29.0414 130.608 29.8045C130.123 30.5836 129.438 30.9784 128.571 30.9784ZM128.571 22.4897C127.738 22.4897 127.123 22.8438 126.688 23.5727C126.247 24.3115 126.023 25.3901 126.023 26.7781C126.023 27.9944 126.259 28.9755 126.725 29.6918C127.189 30.4038 127.793 30.75 128.571 30.75C129.364 30.75 129.968 30.4008 130.414 29.6832C130.866 28.9565 131.095 27.9242 131.095 26.6143C131.095 25.2943 130.869 24.2621 130.426 23.5449C129.987 22.8347 129.38 22.4897 128.571 22.4897Z" fill="#231F20"/>
<path d="M139.864 21.7306V24.6145H139.91C140.771 22.6926 141.771 21.7306 142.912 21.7306C143.537 21.7306 144.073 21.9863 144.518 22.4985L143.92 25.2359C143.098 24.4541 142.419 24.0646 141.879 24.0646C141.482 24.0646 141.133 24.1573 140.836 24.3449C140.539 24.5326 140.215 24.8693 139.864 25.3533V29.0588C139.864 29.6381 139.964 30.0325 140.168 30.2427C140.371 30.455 140.781 30.6188 141.4 30.7354V31.1462H135.63V30.7354C136.223 30.595 136.626 30.4121 136.831 30.1846C137.039 29.958 137.142 29.5835 137.142 29.0588V24.2747C137.142 23.704 137.013 23.2785 136.75 22.9968C136.487 22.7151 136.068 22.5522 135.489 22.505V22.0942L139.453 21.7306H139.864Z" fill="#231F20"/>
<path d="M141.512 31.2605H135.516V30.6447L135.604 30.6252C136.174 30.4896 136.558 30.3158 136.747 30.1074C136.933 29.9046 137.029 29.551 137.029 29.0592V24.2751C137.029 23.7369 136.907 23.3335 136.666 23.0756C136.425 22.8169 136.026 22.6635 135.48 22.6184L135.375 22.6098V21.9892L139.442 21.617H139.977V24.1997C140.817 22.4858 141.804 21.617 142.913 21.617C143.569 21.617 144.138 21.8878 144.605 22.4226L144.642 22.4659L143.989 25.4594L143.841 25.3194C143.046 24.5633 142.386 24.1785 141.879 24.1785C141.505 24.1785 141.174 24.2669 140.897 24.4419C140.619 24.6166 140.31 24.9359 139.977 25.3901V29.0587C139.977 29.6034 140.07 29.9757 140.25 30.1642C140.436 30.357 140.829 30.5113 141.42 30.6235L141.513 30.6408V31.2605H141.512ZM135.745 31.0321H141.285V30.8302C140.69 30.7084 140.297 30.5425 140.085 30.3223C139.859 30.0875 139.749 29.6741 139.749 29.0592V25.3173L139.771 25.2869C140.129 24.7921 140.466 24.4437 140.775 24.2482C141.089 24.0506 141.46 23.9505 141.879 23.9505C142.421 23.9505 143.066 24.2989 143.851 25.0161L144.393 22.5313C143.977 22.0698 143.49 21.8454 142.912 21.8454C141.824 21.8454 140.85 22.7931 140.014 24.6612L139.984 24.7292H139.749V21.8454H139.452L135.603 22.1981V22.4C136.155 22.4607 136.569 22.6349 136.834 22.9188C137.114 23.2208 137.256 23.6767 137.256 24.2747V29.0587C137.256 29.6182 137.146 30.0112 136.915 30.2612C136.702 30.4961 136.318 30.6807 135.745 30.8246V31.0321Z" fill="#231F20"/>
<path d="M157.696 17.0985V17.5093C156.947 17.6969 156.462 17.9114 156.243 18.1545C156.024 18.3963 155.916 18.8028 155.916 19.373V28.8363C155.916 29.4222 156.069 29.8208 156.379 30.0323C156.687 30.2425 157.272 30.3486 158.132 30.3486C159.03 30.3486 159.727 30.151 160.224 29.7567C160.72 29.3611 161.238 28.6092 161.777 27.4986H162.187L161.777 31.1451H151.06V30.7343C151.805 30.5475 152.284 30.3244 152.499 30.0665C152.713 29.8087 152.819 29.2735 152.819 28.4597V19.4788C152.819 18.8465 152.705 18.4015 152.476 18.148C152.247 17.8936 151.775 17.68 151.06 17.5088V17.098H157.696V17.0985Z" fill="#231F20"/>
<path d="M161.88 31.2604H150.946V30.6468L151.033 30.6251C151.749 30.4449 152.214 30.2317 152.411 29.9951C152.607 29.7598 152.705 29.2432 152.705 28.4606V19.4788C152.705 18.8782 152.6 18.4561 152.391 18.2247C152.18 17.9885 151.723 17.7857 151.034 17.6198L150.946 17.5994V16.9841H157.813V17.5985L157.726 17.6202C157 17.8013 156.532 18.0063 156.327 18.2308C156.13 18.4505 156.03 18.8349 156.03 19.3731V28.8363C156.03 29.3797 156.17 29.7507 156.443 29.9374C156.73 30.1346 157.3 30.2343 158.133 30.2343C158.999 30.2343 159.68 30.0436 160.154 29.6679C160.633 29.2848 161.146 28.5386 161.676 27.4483L161.707 27.3846H162.317L161.88 31.2604ZM151.175 31.032H161.676L162.06 27.6134H161.849C161.316 28.6994 160.793 29.4499 160.296 29.846C159.781 30.2551 159.053 30.4626 158.133 30.4626C157.239 30.4626 156.644 30.3526 156.314 30.1272C155.974 29.8941 155.801 29.4599 155.801 28.8363V19.3731C155.801 18.7673 155.919 18.3435 156.157 18.0765C156.386 17.8252 156.853 17.6107 157.583 17.42V17.2129H151.175V17.4191C151.869 17.5938 152.322 17.8074 152.562 18.0713C152.812 18.3504 152.932 18.8102 152.932 19.4788V28.4602C152.932 29.3091 152.821 29.8586 152.588 30.1402C152.364 30.4089 151.901 30.6342 151.175 30.8249V31.032Z" fill="#231F20"/>
<path d="M172.741 28.3545H173.153C172.746 29.3326 172.11 30.1026 171.242 30.6655C170.374 31.2276 169.396 31.5101 168.309 31.5101C166.895 31.5101 165.717 31.0508 164.774 30.1317C163.833 29.213 163.362 28.0625 163.362 26.6784C163.362 25.2713 163.844 24.0953 164.81 23.1488C165.775 22.2033 166.973 21.7305 168.402 21.7305C169.693 21.7305 170.766 22.1002 171.623 22.8381C172.478 23.577 172.987 24.5676 173.153 25.8104H166.293C166.285 25.9365 166.281 26.0609 166.281 26.1865C166.281 27.4129 166.59 28.41 167.205 29.1762C167.822 29.9432 168.586 30.3249 169.499 30.3249C170.803 30.3249 171.884 29.6697 172.741 28.3545ZM166.281 25.2601H170.232C170.177 24.4081 169.961 23.7139 169.586 23.1787C169.209 22.6436 168.747 22.3753 168.198 22.3753C167.649 22.3753 167.203 22.6375 166.858 23.1605C166.513 23.6845 166.32 24.3847 166.281 25.2601Z" fill="#231F20"/>
<path d="M168.309 31.6241C166.871 31.6241 165.653 31.1496 164.694 30.2144C163.734 29.2776 163.247 28.0881 163.247 26.6784C163.247 25.2471 163.745 24.0311 164.729 23.067C165.713 22.1041 166.947 21.6166 168.402 21.6166C169.715 21.6166 170.824 21.9983 171.697 22.7519C172.572 23.5077 173.099 24.5312 173.266 25.7961L173.282 25.9253H166.401C166.397 26.0119 166.396 26.0999 166.396 26.1866C166.396 27.3804 166.699 28.3628 167.294 29.1047C167.885 29.8392 168.628 30.2114 169.499 30.2114C170.756 30.2114 171.815 29.5653 172.645 28.293L172.68 28.241H173.324L173.258 28.3996C172.845 29.3941 172.186 30.1889 171.303 30.7622C170.42 31.3342 169.413 31.6241 168.309 31.6241ZM168.402 21.8449C167.01 21.8449 165.828 22.3117 164.89 23.2308C163.951 24.1503 163.476 25.3099 163.476 26.6784C163.476 28.0235 163.94 29.1588 164.854 30.0498C165.77 30.9429 166.933 31.3957 168.309 31.3957C169.368 31.3957 170.333 31.1167 171.179 30.5689C171.975 30.0532 172.579 29.3482 172.977 28.4694H172.802C171.931 29.7763 170.82 30.4398 169.498 30.4398C168.555 30.4398 167.752 30.0385 167.115 29.2472C166.486 28.4633 166.166 27.4333 166.166 26.1857C166.166 26.0583 166.17 25.9305 166.179 25.8026L166.185 25.696H173.021C172.844 24.5477 172.348 23.6156 171.547 22.9235C170.717 22.2085 169.658 21.8449 168.402 21.8449ZM170.355 25.3745H166.162L166.166 25.2545C166.207 24.3626 166.407 23.6377 166.762 23.0986C167.127 22.5439 167.611 22.261 168.198 22.261C168.783 22.261 169.281 22.5478 169.678 23.1129C170.065 23.6637 170.291 24.3834 170.348 25.2523L170.355 25.3745ZM166.401 25.1457H170.109C170.044 24.3739 169.836 23.7352 169.491 23.2442C169.135 22.7363 168.711 22.4902 168.198 22.4902C167.686 22.4902 167.278 22.7307 166.953 23.2247C166.637 23.7031 166.452 24.3501 166.401 25.1457Z" fill="#231F20"/>
<path d="M174.677 31.5106V28.0157H175.087C175.991 29.915 177.085 30.8649 178.369 30.8649C178.806 30.8649 179.184 30.7354 179.502 30.4775C179.818 30.2188 179.977 29.9094 179.977 29.5493C179.977 29.1589 179.832 28.82 179.542 28.5344C179.254 28.2489 178.628 27.9178 177.667 27.5412C176.439 27.0645 175.63 26.6009 175.239 26.1511C174.849 25.7013 174.654 25.1514 174.654 24.5018C174.654 23.7196 174.949 23.0609 175.539 22.5292C176.129 21.9975 176.889 21.731 177.82 21.731C178.163 21.731 178.761 21.7978 179.613 21.9304C179.949 21.9776 180.152 22.0014 180.223 22.0014C180.363 22.0014 180.547 21.9117 180.774 21.7315H181.185V24.5677H180.774C180.5 23.8808 180.118 23.3426 179.625 22.9565C179.132 22.5691 178.586 22.3754 177.983 22.3754C177.553 22.3754 177.194 22.4712 176.906 22.6631C176.616 22.8551 176.471 23.0965 176.471 23.3855C176.471 23.6754 176.593 23.9276 176.835 24.1434C177.076 24.3588 177.62 24.6266 178.463 24.9468C179.77 25.4473 180.641 25.9561 181.08 26.4717C181.517 26.9874 181.734 27.6236 181.734 28.3819C181.734 29.2564 181.401 29.9965 180.733 30.6023C180.066 31.2073 179.309 31.511 178.463 31.511C177.965 31.511 177.468 31.4595 176.975 31.3581C176.475 31.2484 176.123 31.1934 175.92 31.1934C175.559 31.1934 175.283 31.2983 175.087 31.5106H174.677Z" fill="#231F20"/>
<path d="M178.463 31.624C177.96 31.624 177.452 31.572 176.952 31.4689C176.461 31.3623 176.114 31.3073 175.92 31.3073C175.591 31.3073 175.346 31.3991 175.17 31.5876L175.136 31.624H174.562V27.9012H175.158L175.19 27.9662C176.069 29.8136 177.14 30.75 178.368 30.75C178.777 30.75 179.135 30.6291 179.429 30.3877C179.72 30.1494 179.862 29.8747 179.862 29.5488C179.862 29.1865 179.732 28.8814 179.462 28.6149C179.187 28.3424 178.568 28.0174 177.624 27.6477C176.369 27.1594 175.56 26.6935 175.152 26.2251C174.745 25.7562 174.539 25.176 174.539 24.5008C174.539 23.6879 174.849 22.9954 175.462 22.4429C176.07 21.8939 176.863 21.6161 177.819 21.6161C178.169 21.6161 178.778 21.6837 179.63 21.8167C180.059 21.8752 180.185 21.8848 180.223 21.8848C180.301 21.8848 180.447 21.8427 180.702 21.6399L180.733 21.6161H181.299V24.682H180.696L180.668 24.6109C180.403 23.9444 180.027 23.4183 179.554 23.0452C179.084 22.6765 178.555 22.4897 177.983 22.4897C177.579 22.4897 177.236 22.5803 176.967 22.7575C176.71 22.9287 176.585 23.1341 176.585 23.385C176.585 23.6428 176.691 23.8625 176.911 24.0571C177.14 24.2612 177.676 24.5242 178.505 24.8393C179.821 25.3441 180.717 25.8689 181.166 26.3967C181.619 26.9314 181.849 27.5983 181.849 28.3809C181.849 29.2849 181.499 30.061 180.81 30.6854C180.122 31.309 179.334 31.624 178.463 31.624ZM175.92 31.0793C176.133 31.0793 176.486 31.1331 176.998 31.2453C177.484 31.3454 177.975 31.3961 178.463 31.3961C179.274 31.3961 180.013 31.1006 180.657 30.5164C181.297 29.9375 181.622 29.219 181.622 28.3814C181.622 27.6555 181.41 27.0363 180.993 26.5449C180.568 26.0465 179.703 25.5443 178.424 25.0533C177.558 24.7244 177.013 24.454 176.759 24.2283C176.493 23.9912 176.356 23.7074 176.356 23.385C176.356 23.0561 176.519 22.7822 176.841 22.5677C177.147 22.3649 177.533 22.2605 177.983 22.2605C178.608 22.2605 179.184 22.4633 179.696 22.8663C180.184 23.2493 180.572 23.7841 180.851 24.4536H181.071V21.8449H180.813C180.578 22.026 180.384 22.1144 180.223 22.1144C180.145 22.1144 179.941 22.0915 179.597 22.0434C178.755 21.9116 178.157 21.8449 177.82 21.8449C176.922 21.8449 176.181 22.1027 175.616 22.6136C175.054 23.1206 174.769 23.7555 174.769 24.5013C174.769 25.1192 174.955 25.6496 175.326 26.0747C175.703 26.5102 176.506 26.9674 177.708 27.4354C178.695 27.8206 179.321 28.1539 179.623 28.4533C179.934 28.7605 180.092 29.1293 180.092 29.5492C180.092 29.9431 179.918 30.2855 179.573 30.5654C179.239 30.8393 178.831 30.9784 178.369 30.9784C177.058 30.9784 175.931 30.0198 175.015 28.13H174.792V31.3957H175.04C175.254 31.1851 175.549 31.0793 175.92 31.0793Z" fill="#231F20"/>
<path d="M183.448 31.5106V28.0157H183.86C184.763 29.915 185.855 30.8649 187.139 30.8649C187.576 30.8649 187.956 30.7354 188.273 30.4775C188.589 30.2188 188.747 29.9094 188.747 29.5493C188.747 29.1589 188.603 28.82 188.313 28.5344C188.023 28.2489 187.399 27.9178 186.438 27.5412C185.21 27.0645 184.4 26.6009 184.01 26.1511C183.619 25.7013 183.423 25.1514 183.423 24.5018C183.423 23.7196 183.719 23.0609 184.308 22.5292C184.899 21.9975 185.659 21.731 186.589 21.731C186.934 21.731 187.532 21.7978 188.383 21.9304C188.72 21.9776 188.923 22.0014 188.993 22.0014C189.133 22.0014 189.317 21.9117 189.545 21.7315H189.955V24.5677H189.545C189.271 23.8808 188.887 23.3426 188.394 22.9565C187.903 22.5691 187.356 22.3754 186.753 22.3754C186.324 22.3754 185.963 22.4712 185.675 22.6631C185.385 22.8551 185.241 23.0965 185.241 23.3855C185.241 23.6754 185.361 23.9276 185.605 24.1434C185.845 24.3588 186.39 24.6266 187.235 24.9468C188.54 25.4473 189.411 25.9561 189.849 26.4717C190.286 26.9874 190.506 27.6236 190.506 28.3819C190.506 29.2564 190.172 29.9965 189.502 30.6023C188.836 31.2073 188.078 31.511 187.235 31.511C186.735 31.511 186.239 31.4595 185.746 31.3581C185.244 31.2484 184.894 31.1934 184.69 31.1934C184.331 31.1934 184.054 31.2983 183.859 31.5106H183.448Z" fill="#231F20"/>
<path d="M187.236 31.624C186.733 31.624 186.223 31.572 185.725 31.4689C185.231 31.3623 184.884 31.3073 184.69 31.3073C184.361 31.3073 184.116 31.3991 183.943 31.5876L183.908 31.624H183.334V27.9012H183.931L183.963 27.9662C184.841 29.8136 185.911 30.75 187.139 30.75C187.549 30.75 187.906 30.6291 188.202 30.3877C188.491 30.1494 188.633 29.8755 188.633 29.5488C188.633 29.1852 188.503 28.8801 188.233 28.6149C187.958 28.3424 187.339 28.0165 186.398 27.6477C185.14 27.1594 184.331 26.6935 183.926 26.2251C183.517 25.7562 183.311 25.176 183.311 24.5008C183.311 23.6874 183.622 22.9945 184.234 22.4429C184.843 21.8939 185.635 21.6161 186.59 21.6161C186.94 21.6161 187.551 21.6837 188.403 21.8167C188.832 21.8752 188.958 21.8848 188.994 21.8848C189.073 21.8848 189.219 21.8427 189.475 21.6399L189.505 21.6161H190.07V24.682H189.468L189.439 24.61C189.175 23.9444 188.8 23.4183 188.325 23.0444C187.857 22.6756 187.328 22.4888 186.754 22.4888C186.349 22.4888 186.008 22.5794 185.738 22.7566C185.482 22.9278 185.358 23.1328 185.358 23.3841C185.358 23.6428 185.463 23.8621 185.682 24.0562C185.911 24.2603 186.449 24.5234 187.277 24.8384C188.596 25.3432 189.49 25.868 189.937 26.3958C190.392 26.9306 190.623 27.5975 190.623 28.3801C190.623 29.284 190.272 30.0593 189.581 30.6846C188.893 31.309 188.104 31.624 187.236 31.624ZM184.69 31.0793C184.904 31.0793 185.258 31.1331 185.77 31.2453C186.253 31.3454 186.745 31.3961 187.235 31.3961C188.045 31.3961 188.783 31.1006 189.426 30.5164C190.067 29.9371 190.392 29.2181 190.392 28.3814C190.392 27.6555 190.179 27.0363 189.762 26.5449C189.339 26.0465 188.475 25.5443 187.193 25.0533C186.327 24.7244 185.782 24.4536 185.528 24.2283C185.262 23.9912 185.127 23.7074 185.127 23.385C185.127 23.0561 185.289 22.7809 185.611 22.5677C185.918 22.3649 186.302 22.2605 186.753 22.2605C187.379 22.2605 187.955 22.4633 188.465 22.8663C188.955 23.2502 189.343 23.7849 189.62 24.4536H189.842V21.8449H189.583C189.348 22.026 189.155 22.1144 188.993 22.1144C188.916 22.1144 188.712 22.0915 188.368 22.0434C187.525 21.9116 186.927 21.8449 186.589 21.8449C185.692 21.8449 184.952 22.1027 184.386 22.6136C183.823 23.1202 183.538 23.7546 183.538 24.5013C183.538 25.1192 183.725 25.65 184.096 26.0747C184.472 26.5093 185.275 26.9665 186.479 27.4354C187.466 27.8206 188.091 28.1539 188.393 28.4533C188.703 28.7588 188.861 29.1284 188.861 29.5492C188.861 29.9431 188.687 30.2855 188.344 30.5654C188.009 30.8393 187.602 30.9784 187.138 30.9784C185.829 30.9784 184.701 30.0198 183.785 28.13H183.561V31.3957H183.81C184.023 31.1851 184.319 31.0793 184.69 31.0793Z" fill="#231F20"/>
</svg>
